<svg xmlns="http://www.w3.org/2000/svg" width="52.928" height="42.342" viewBox="0 0 52.928 42.342">
  <path id="volume-up-solid" d="M23.711,64.781,13.9,74.589H2.646A2.646,2.646,0,0,0,0,77.236V93.114A2.646,2.646,0,0,0,2.646,95.76H13.9l9.81,9.808a2.648,2.648,0,0,0,4.518-1.871V66.652A2.648,2.648,0,0,0,23.711,64.781ZM52.928,85.175A20.359,20.359,0,0,0,43.47,67.947a2.635,2.635,0,0,0-3.652.823,2.678,2.678,0,0,0,.817,3.679,15.07,15.07,0,0,1,0,25.454,2.677,2.677,0,0,0-.817,3.678,2.64,2.64,0,0,0,3.652.823A20.358,20.358,0,0,0,52.928,85.175ZM37.3,76.7a2.647,2.647,0,1,0-2.554,4.638,4.346,4.346,0,0,1,0,7.677A2.647,2.647,0,0,0,37.3,93.651a9.641,9.641,0,0,0,0-16.952Z" transform="translate(0 -64.004)" fill="#ffb94e"/>
</svg>
